<?xml version="1.0" encoding="UTF-8"?>
<!DOCTYPE svg PUBLIC "-//W3C//DTD SVG 1.1//EN" "http://www.w3.org/Graphics/SVG/1.1/DTD/svg11.dtd">
<svg xmlns="http://www.w3.org/2000/svg" version="1.1" width="261px" height="184px" style="shape-rendering:geometricPrecision; text-rendering:geometricPrecision; image-rendering:optimizeQuality; fill-rule:evenodd; clip-rule:evenodd" xmlns:xlink="http://www.w3.org/1999/xlink">
<g><path style="opacity:1" fill="#fefefd" d="M -0.5,-0.5 C 86.5,-0.5 173.5,-0.5 260.5,-0.5C 260.5,60.8333 260.5,122.167 260.5,183.5C 173.5,183.5 86.5,183.5 -0.5,183.5C -0.5,122.167 -0.5,60.8333 -0.5,-0.5 Z"/></g>
<g><path style="opacity:1" fill="#fe7111" d="M 167.5,38.5 C 167.5,40.8333 167.5,43.1667 167.5,45.5C 194.167,45.5 220.833,45.5 247.5,45.5C 247.5,77.1667 247.5,108.833 247.5,140.5C 247.5,142.833 247.5,145.167 247.5,147.5C 239.826,147.334 232.159,147.5 224.5,148C 215.963,156.04 207.296,163.874 198.5,171.5C 198.5,163.5 198.5,155.5 198.5,147.5C 160.833,147.5 123.167,147.5 85.5,147.5C 85.5,134.5 85.5,121.5 85.5,108.5C 75.1667,108.5 64.8333,108.5 54.5,108.5C 54.6664,116.174 54.4997,123.841 54,131.5C 45.4061,124.118 36.9061,116.618 28.5,109C 20.8406,108.5 13.1739,108.334 5.5,108.5C 5.5,74.1667 5.5,39.8333 5.5,5.5C 59.5,5.5 113.5,5.5 167.5,5.5C 167.5,16.5 167.5,27.5 167.5,38.5 Z"/></g>
<g><path style="opacity:1" fill="#ffe2ce" d="M 164.5,8.5 C 112.5,8.5 60.5,8.5 8.5,8.5C 8.5,40.8333 8.5,73.1667 8.5,105.5C 7.50174,73.0043 7.16841,40.3376 7.5,7.5C 60.0027,7.16774 112.336,7.50108 164.5,8.5 Z"/></g>
<g><path style="opacity:1" fill="#fffefe" d="M 164.5,8.5 C 164.5,20.8333 164.5,33.1667 164.5,45.5C 138.167,45.5 111.833,45.5 85.5,45.5C 85.5,46.8333 85.5,48.1667 85.5,49.5C 64.8333,49.5 44.1667,49.5 23.5,49.5C 23.5,50.5 23.5,51.5 23.5,52.5C 44.1667,52.5 64.8333,52.5 85.5,52.5C 85.5,59.5 85.5,66.5 85.5,73.5C 65.1667,73.5 44.8333,73.5 24.5,73.5C 23.596,74.209 23.2627,75.209 23.5,76.5C 44.1667,76.5 64.8333,76.5 85.5,76.5C 85.5,79.5 85.5,82.5 85.5,85.5C 64.8333,85.5 44.1667,85.5 23.5,85.5C 23.2627,86.791 23.596,87.791 24.5,88.5C 44.8333,88.5 65.1667,88.5 85.5,88.5C 85.5,94.1667 85.5,99.8333 85.5,105.5C 74.5,105.5 63.5,105.5 52.5,105.5C 51.8333,112.167 51.1667,118.833 50.5,125.5C 43.5738,119.016 36.5738,112.516 29.5,106C 22.5079,105.5 15.5079,105.334 8.5,105.5C 8.5,73.1667 8.5,40.8333 8.5,8.5C 60.5,8.5 112.5,8.5 164.5,8.5 Z"/></g>
<g><path style="opacity:1" fill="#ffcfac" d="M 146.5,26.5 C 105.486,25.839 64.8196,26.5057 24.5,28.5C 23.596,27.791 23.2627,26.791 23.5,25.5C 64.6701,25.168 105.67,25.5014 146.5,26.5 Z"/></g>
<g><path style="opacity:1" fill="#ff7514" d="M 146.5,26.5 C 106.18,28.4943 65.5137,29.161 24.5,28.5C 64.8196,26.5057 105.486,25.839 146.5,26.5 Z"/></g>
<g><path style="opacity:1" fill="#ffb079" d="M 56.5,40.5 C 51.5442,39.1718 46.2109,38.5051 40.5,38.5C 34.7891,38.5051 29.4558,39.1718 24.5,40.5C 23.596,39.791 23.2627,38.791 23.5,37.5C 34.8333,37.5 46.1667,37.5 57.5,37.5C 57.7373,38.791 57.404,39.791 56.5,40.5 Z"/></g>
<g><path style="opacity:1" fill="#ffb17a" d="M 146.5,40.5 C 135.353,39.1677 123.853,38.501 112,38.5C 100.147,38.501 88.6467,39.1677 77.5,40.5C 76.596,39.791 76.2627,38.791 76.5,37.5C 100.167,37.5 123.833,37.5 147.5,37.5C 147.737,38.791 147.404,39.791 146.5,40.5 Z"/></g>
<g><path style="opacity:1" fill="#ff822b" d="M 56.5,40.5 C 45.8333,40.5 35.1667,40.5 24.5,40.5C 29.4558,39.1718 34.7891,38.5051 40.5,38.5C 46.2109,38.5051 51.5442,39.1718 56.5,40.5 Z"/></g>
<g><path style="opacity:1" fill="#ff822b" d="M 146.5,40.5 C 123.5,40.5 100.5,40.5 77.5,40.5C 88.6467,39.1677 100.147,38.501 112,38.5C 123.853,38.501 135.353,39.1677 146.5,40.5 Z"/></g>
<g><path style="opacity:1" fill="#755a59" d="M 167.5,38.5 C 196.5,38.5 225.5,38.5 254.5,38.5C 254.5,72.5 254.5,106.5 254.5,140.5C 252.167,140.5 249.833,140.5 247.5,140.5C 247.5,108.833 247.5,77.1667 247.5,45.5C 220.833,45.5 194.167,45.5 167.5,45.5C 167.5,43.1667 167.5,40.8333 167.5,38.5 Z"/></g>
<g><path style="opacity:1" fill="#fffdfc" d="M 167.5,47.5 C 167.5,49.8333 167.5,52.1667 167.5,54.5C 190.661,55.4975 213.994,55.8309 237.5,55.5C 237.169,84.0049 237.502,112.338 238.5,140.5C 240.833,140.5 243.167,140.5 245.5,140.5C 245.5,142.167 245.5,143.833 245.5,145.5C 238.159,145.334 230.826,145.5 223.5,146C 216,152.833 208.5,159.667 201,166.5C 200.5,159.508 200.334,152.508 200.5,145.5C 162.833,145.5 125.167,145.5 87.5,145.5C 87.5,112.833 87.5,80.1667 87.5,47.5C 114.167,47.5 140.833,47.5 167.5,47.5 Z"/></g>
<g><path style="opacity:1" fill="#775b58" d="M 167.5,47.5 C 193.5,47.5 219.5,47.5 245.5,47.5C 245.5,78.5 245.5,109.5 245.5,140.5C 243.167,140.5 240.833,140.5 238.5,140.5C 238.5,111.833 238.5,83.1667 238.5,54.5C 214.833,54.5 191.167,54.5 167.5,54.5C 167.5,52.1667 167.5,49.8333 167.5,47.5 Z"/></g>
<g><path style="opacity:1" fill="#ffa15e" d="M 85.5,49.5 C 65.3375,50.3319 45.0041,50.8319 24.5,51C 45.0041,51.1681 65.3375,51.6681 85.5,52.5C 64.8333,52.5 44.1667,52.5 23.5,52.5C 23.5,51.5 23.5,50.5 23.5,49.5C 44.1667,49.5 64.8333,49.5 85.5,49.5 Z"/></g>
<g><path style="opacity:1" fill="#e6e1e1" d="M 167.5,54.5 C 191.167,54.5 214.833,54.5 238.5,54.5C 238.5,83.1667 238.5,111.833 238.5,140.5C 237.502,112.338 237.169,84.0049 237.5,55.5C 213.994,55.8309 190.661,55.4975 167.5,54.5 Z"/></g>
<g><path style="opacity:1" fill="#ff7210" d="M 24.5,61.5 C 40.2031,60.8493 55.5364,61.5159 70.5,63.5C 54.7969,64.1507 39.4636,63.4841 24.5,61.5 Z"/></g>
<g><path style="opacity:1" fill="#ffbd8e" d="M 24.5,61.5 C 39.4636,63.4841 54.7969,64.1507 70.5,63.5C 55.0089,64.4963 39.3422,64.8296 23.5,64.5C 23.2627,63.209 23.596,62.209 24.5,61.5 Z"/></g>
<g><path style="opacity:1" fill="#ff7213" d="M 102.5,64.5 C 110.88,63.6255 117.88,66.2921 123.5,72.5C 128.531,71.9871 133.531,71.1537 138.5,70C 148.367,82.9017 157.867,96.0683 167,109.5C 167.706,111.971 167.373,114.305 166,116.5C 162.823,119.42 159.99,122.586 157.5,126C 153.249,126.443 149.249,127.61 145.5,129.5C 143.088,129.594 141.255,128.594 140,126.5C 131.333,113.833 122.667,101.167 114,88.5C 113.13,83.8927 114.963,81.2261 119.5,80.5C 119.104,77.9556 119.771,75.7889 121.5,74C 115.958,68.7925 109.625,65.6259 102.5,64.5 Z"/></g>
<g><path style="opacity:1" fill="#fff7f2" d="M 134.5,72.5 C 135.5,72.5 136.5,72.5 137.5,72.5C 138.167,76.5 136.5,78.1667 132.5,77.5C 132.392,75.4862 133.058,73.8195 134.5,72.5 Z"/></g>
<g><path style="opacity:1" fill="#ff9449" d="M 24.5,73.5 C 44.6461,75.1631 64.9795,76.1631 85.5,76.5C 64.8333,76.5 44.1667,76.5 23.5,76.5C 23.2627,75.209 23.596,74.209 24.5,73.5 Z"/></g>
<g><path style="opacity:1" fill="#ffcba5" d="M 233.5,76.5 C 212.473,75.8449 191.806,76.5115 171.5,78.5C 170.596,77.791 170.263,76.791 170.5,75.5C 191.673,75.1694 212.673,75.5027 233.5,76.5 Z"/></g>
<g><path style="opacity:1" fill="#ffecdd" d="M 125.5,76.5 C 126.209,75.596 127.209,75.2627 128.5,75.5C 128.306,79.0048 127.306,79.3382 125.5,76.5 Z"/></g>
<g><path style="opacity:1" fill="#ff710a" d="M 233.5,76.5 C 213.194,78.4885 192.527,79.1551 171.5,78.5C 191.806,76.5115 212.473,75.8449 233.5,76.5 Z"/></g>
<g><path style="opacity:1" fill="#fff0e5" d="M 122.5,77.5 C 125.962,79.1927 125.962,80.1927 122.5,80.5C 122.5,79.5 122.5,78.5 122.5,77.5 Z"/></g>
<g><path style="opacity:1" fill="#fff1e7" d="M 137.5,78.5 C 138.833,78.5 140.167,78.5 141.5,78.5C 142.085,81.2605 141.085,82.9272 138.5,83.5C 134.872,82.5645 134.539,80.8978 137.5,78.5 Z"/></g>
<g><path style="opacity:1" fill="#ffeadb" d="M 129.5,80.5 C 131.252,80.4176 132.252,81.2509 132.5,83C 131.831,84.8475 130.497,86.0142 128.5,86.5C 126.717,85.6518 126.217,84.3185 127,82.5C 128.813,83.6091 129.646,82.9424 129.5,80.5 Z"/></g>
<g><path style="opacity:1" fill="#fff5ee" d="M 118.5,83.5 C 119.833,83.5 121.167,83.5 122.5,83.5C 122.838,87.1507 121.172,88.8174 117.5,88.5C 117.366,86.7085 117.699,85.0418 118.5,83.5 Z"/></g>
<g><path style="opacity:1" fill="#fff4ec" d="M 142.5,83.5 C 146.773,86.3802 148.607,90.3802 148,95.5C 147.586,95.9574 147.086,96.2907 146.5,96.5C 143.364,93.571 140.697,90.2377 138.5,86.5C 139.901,85.4793 141.235,84.4793 142.5,83.5 Z"/></g>
<g><path style="opacity:1" fill="#ffab70" d="M 85.5,85.5 C 64.9795,85.8369 44.6461,86.8369 24.5,88.5C 23.596,87.791 23.2627,86.791 23.5,85.5C 44.1667,85.5 64.8333,85.5 85.5,85.5 Z"/></g>
<g><path style="opacity:1" fill="#fff5ee" d="M 132.5,86.5 C 133.833,86.5 135.167,86.5 136.5,86.5C 136.349,90.314 134.349,91.9807 130.5,91.5C 130.392,89.4862 131.058,87.8195 132.5,86.5 Z"/></g>
<g><path style="opacity:1" fill="#ffa768" d="M 171.5,88.5 C 182.321,87.5054 193.321,87.1721 204.5,87.5C 204.737,88.791 204.404,89.791 203.5,90.5C 193.219,88.5238 182.552,87.8572 171.5,88.5 Z"/></g>
<g><path style="opacity:1" fill="#fff2e9" d="M 123.5,88.5 C 124.5,88.5 125.5,88.5 126.5,88.5C 126.839,93.2411 124.839,94.5744 120.5,92.5C 121.524,91.1482 122.524,89.8149 123.5,88.5 Z"/></g>
<g><path style="opacity:1" fill="#ff7a1c" d="M 171.5,88.5 C 182.552,87.8572 193.219,88.5238 203.5,90.5C 192.448,91.1428 181.781,90.4762 171.5,88.5 Z"/></g>
<g><path style="opacity:1" fill="#ff8633" d="M 217.5,87.5 C 222.833,87.5 228.167,87.5 233.5,87.5C 233.5,88.5 233.5,89.5 233.5,90.5C 228.167,90.5 222.833,90.5 217.5,90.5C 217.5,89.5 217.5,88.5 217.5,87.5 Z"/></g>
<g><path style="opacity:1" fill="#fff2e9" d="M 137.5,90.5 C 139.534,91.5478 140.867,93.2145 141.5,95.5C 139.253,96.2446 137.42,97.578 136,99.5C 134.833,97.6667 133.667,95.8333 132.5,94C 134.881,93.7767 136.547,92.61 137.5,90.5 Z"/></g>
<g><path style="opacity:1" fill="#fff6f0" d="M 128.5,92.5 C 130.725,95.2624 132.725,98.2624 134.5,101.5C 133.307,103.384 131.641,103.884 129.5,103C 127.954,100.743 126.288,98.5765 124.5,96.5C 126.188,95.4787 127.521,94.1454 128.5,92.5 Z"/></g>
<g><path style="opacity:1" fill="#ff7f29" d="M 171.5,99.5 C 192.167,99.5 212.833,99.5 233.5,99.5C 233.5,100.5 233.5,101.5 233.5,102.5C 212.833,102.5 192.167,102.5 171.5,102.5C 171.5,101.5 171.5,100.5 171.5,99.5 Z"/></g>
<g><path style="opacity:1" fill="#fff8f3" d="M 154.5,100.5 C 157.223,103.586 159.723,106.92 162,110.5C 163.254,114.111 162.088,115.611 158.5,115C 153.818,111.061 152.485,106.228 154.5,100.5 Z"/></g>
<g><path style="opacity:1" fill="#ffcaa3" d="M 141.5,103.5 C 139.915,102.998 139.415,101.998 140,100.5C 141.039,101.244 141.539,102.244 141.5,103.5 Z"/></g>
<g><path style="opacity:1" fill="#ffc297" d="M 52.5,105.5 C 52.8303,112.532 52.497,119.532 51.5,126.5C 50.8933,126.376 50.56,126.043 50.5,125.5C 51.1667,118.833 51.8333,112.167 52.5,105.5 Z"/></g>
<g><path style="opacity:1" fill="#ffd0af" d="M 141.5,103.5 C 142.482,104.141 143.482,104.807 144.5,105.5C 148.195,104.749 148.028,105.415 144,107.5C 142.519,106.529 141.685,105.196 141.5,103.5 Z"/></g>
<g><path style="opacity:1" fill="#fff7f1" d="M 151.5,111.5 C 153.74,112.568 155.574,114.234 157,116.5C 157.548,120.662 155.714,122.162 151.5,121C 150.044,119.255 148.711,117.422 147.5,115.5C 149.188,114.479 150.521,113.145 151.5,111.5 Z"/></g>
<g><path style="opacity:1" fill="#ff6c03" d="M 171.5,111.5 C 192.177,111.167 212.844,111.5 233.5,112.5C 223.167,112.833 212.833,113.167 202.5,113.5C 191.811,113.499 181.478,112.832 171.5,111.5 Z"/></g>
<g><path style="opacity:1" fill="#fff6f0" d="M 138.5,114.5 C 144.562,114.706 148.062,117.706 149,123.5C 147.186,124.76 145.353,124.76 143.5,123.5C 141.331,120.693 139.665,117.693 138.5,114.5 Z"/></g>
<g><path style="opacity:1" fill="#ffc8a1" d="M 85.5,147.5 C 123.167,147.5 160.833,147.5 198.5,147.5C 198.5,155.5 198.5,163.5 198.5,171.5C 197.501,164.589 197.168,156.922 197.5,148.5C 159.996,148.832 122.663,148.498 85.5,147.5 Z"/></g>
</svg>
